<svg xmlns="http://www.w3.org/2000/svg" xmlns:xlink="http://www.w3.org/1999/xlink" width="500" zoomAndPan="magnify" viewBox="0 0 375 374.999991" height="500" preserveAspectRatio="xMidYMid meet" version="1.0"><defs><g/><clipPath id="71500bd187"><path d="M 140 112.007812 L 235 112.007812 L 235 205.007812 L 140 205.007812 Z M 140 112.007812 " clip-rule="nonzero"/></clipPath></defs><g clip-path="url(#71500bd187)"><path fill="#000000" d="M 212.136719 203.253906 C 212.136719 203.253906 211.976562 203.46875 210.886719 203.476562 L 212.578125 201.484375 C 212.886719 201.503906 213.109375 201.511719 213.253906 201.515625 C 213.273438 201.589844 213.285156 201.660156 213.300781 201.730469 Z M 209.488281 203.398438 C 209.132812 203.363281 208.726562 203.3125 208.269531 203.246094 L 210.140625 201.304688 C 210.527344 201.339844 210.878906 201.367188 211.195312 201.390625 Z M 205.550781 202.753906 L 207.261719 200.976562 C 207.503906 201.027344 207.734375 201.066406 207.929688 201.085938 C 208.171875 201.109375 208.402344 201.136719 208.621094 201.15625 L 206.84375 203.007812 C 206.441406 202.933594 206.011719 202.847656 205.550781 202.753906 Z M 203.296875 202.253906 C 203.089844 202.203125 202.882812 202.148438 202.671875 202.097656 L 204.488281 200.214844 C 205 200.378906 205.476562 200.527344 205.917969 200.652344 L 204.179688 202.457031 C 203.894531 202.390625 203.601562 202.324219 203.296875 202.253906 Z M 199.667969 201.230469 L 201.613281 199.210938 C 202.09375 199.390625 202.5625 199.558594 203.011719 199.71875 L 201.125 201.675781 C 200.636719 201.535156 200.148438 201.386719 199.667969 201.230469 Z M 196.480469 200.109375 L 198.503906 198.007812 C 198.960938 198.191406 199.410156 198.371094 199.855469 198.542969 L 197.859375 200.617188 C 197.394531 200.449219 196.933594 200.28125 196.480469 200.109375 Z M 192.84375 198.609375 L 194.871094 196.5 C 195.457031 196.75 196.035156 196.992188 196.609375 197.234375 L 194.574219 199.347656 C 193.976562 199.101562 193.398438 198.855469 192.84375 198.609375 Z M 190.820312 197.6875 C 190.347656 197.464844 189.894531 197.246094 189.46875 197.039062 L 191.539062 195.046875 C 191.964844 195.234375 192.390625 195.425781 192.816406 195.613281 Z M 185.738281 195.082031 L 187.757812 193.316406 C 188.320312 193.582031 188.898438 193.847656 189.480469 194.113281 L 187.488281 196.03125 C 186.675781 195.605469 186.070312 195.273438 185.738281 195.082031 Z M 183.804688 193.988281 C 183.335938 193.722656 182.804688 193.421875 182.246094 193.109375 L 184.058594 191.523438 C 184.582031 191.785156 185.128906 192.054688 185.695312 192.332031 Z M 180.308594 192.019531 C 179.722656 191.691406 179.15625 191.371094 178.632812 191.078125 L 180.296875 189.617188 C 180.863281 189.90625 181.441406 190.199219 182.039062 190.503906 Z M 177.804688 194.261719 C 177.804688 194.261719 177.476562 193.910156 176.902344 193.324219 L 177.863281 192.203125 C 178.429688 192.75 178.796875 193.113281 178.796875 193.113281 Z M 171.375 202.804688 C 170.523438 202.613281 167.714844 201.828125 163.574219 199.128906 L 172.046875 189.601562 C 174.5625 191.824219 176.800781 193.996094 177.597656 194.777344 Z M 170.167969 204.363281 C 170.035156 204.363281 169.792969 204.347656 169.40625 204.253906 L 170.507812 203.117188 C 170.734375 203.179688 170.910156 203.226562 171.027344 203.25 Z M 167.675781 203.65625 L 168.785156 202.511719 C 169.136719 202.65625 169.449219 202.773438 169.726562 202.867188 L 168.609375 204.019531 C 168.339844 203.925781 168.027344 203.808594 167.675781 203.65625 Z M 165.457031 202.574219 L 166.535156 201.460938 C 167.019531 201.714844 167.472656 201.933594 167.886719 202.121094 L 166.789062 203.253906 C 166.386719 203.0625 165.941406 202.835938 165.457031 202.574219 Z M 163.148438 201.234375 L 164.21875 200.132812 C 164.679688 200.421875 165.121094 200.679688 165.542969 200.917969 L 164.472656 202.023438 C 164.058594 201.785156 163.617188 201.523438 163.148438 201.234375 Z M 161.976562 200.492188 C 161.472656 200.171875 160.945312 199.820312 160.386719 199.441406 L 161.5 198.292969 C 162.035156 198.683594 162.554688 199.046875 163.054688 199.382812 Z M 159.066406 198.527344 C 158.535156 198.152344 158.011719 197.777344 157.503906 197.402344 L 158.734375 196.132812 C 158.945312 196.308594 159.15625 196.484375 159.355469 196.644531 C 159.648438 196.882812 159.9375 197.109375 160.226562 197.332031 Z M 154.671875 195.214844 L 156.042969 193.800781 C 156.554688 194.261719 157.050781 194.699219 157.523438 195.109375 L 156.230469 196.441406 C 155.695312 196.03125 155.175781 195.621094 154.671875 195.214844 Z M 151.835938 192.804688 L 153.324219 191.273438 C 153.800781 191.734375 154.277344 192.183594 154.746094 192.617188 L 153.316406 194.09375 C 152.804688 193.660156 152.3125 193.230469 151.835938 192.804688 Z M 149.140625 190.246094 L 150.683594 188.652344 C 151.121094 189.101562 151.558594 189.542969 152 189.980469 L 150.476562 191.550781 C 150.007812 191.109375 149.5625 190.671875 149.140625 190.246094 Z M 147.859375 188.90625 C 147.421875 188.429688 147.015625 187.96875 146.640625 187.523438 L 148.238281 186.023438 C 148.617188 186.453125 149.007812 186.878906 149.410156 187.308594 Z M 144.609375 184.800781 C 144.589844 184.773438 144.574219 184.746094 144.558594 184.71875 L 146.003906 183.359375 C 146.351562 183.804688 146.71875 184.257812 147.101562 184.714844 L 145.558594 186.164062 C 145.199219 185.6875 144.878906 185.230469 144.609375 184.800781 Z M 143.742188 183.441406 C 143.414062 182.921875 143.105469 182.421875 142.816406 181.925781 L 144.117188 180.703125 C 144.410156 181.175781 144.738281 181.664062 145.101562 182.164062 Z M 141.558594 179.339844 L 142.816406 178.15625 C 142.976562 178.546875 143.15625 178.957031 143.371094 179.386719 C 143.386719 179.417969 143.40625 179.449219 143.417969 179.480469 L 142.144531 180.679688 C 141.921875 180.234375 141.726562 179.789062 141.558594 179.339844 Z M 141.003906 176.953125 L 142.117188 175.90625 C 142.1875 176.226562 142.273438 176.570312 142.386719 176.945312 L 141.183594 178.078125 C 141.101562 177.710938 141.039062 177.339844 141.003906 176.953125 Z M 141.097656 174.425781 L 141.121094 174.394531 L 141.914062 173.492188 C 141.914062 173.492188 141.855469 173.925781 141.929688 174.699219 L 140.972656 175.597656 C 140.996094 175.21875 141.03125 174.828125 141.097656 174.425781 Z M 142.289062 172.84375 L 150.347656 162.121094 C 150.246094 162.578125 150.136719 163.613281 150.648438 166.023438 L 142.789062 177.253906 C 142.292969 174.964844 142.257812 173.597656 142.289062 172.84375 Z M 150.75 162.632812 L 151.871094 161.386719 C 151.878906 161.71875 151.875 162.21875 151.929688 162.695312 L 150.765625 163.921875 C 150.675781 163.285156 150.699219 162.878906 150.75 162.632812 Z M 152.628906 165.582031 L 151.492188 166.574219 C 151.304688 166.0625 151.15625 165.601562 151.042969 165.199219 L 152.125 164.085938 C 152.128906 164.09375 152.394531 165.054688 152.628906 165.582031 Z M 152.597656 160.570312 C 153.027344 160.445312 154.230469 160.203125 155.863281 160.839844 C 156.828125 161.214844 159.398438 162.394531 162.605469 163.972656 L 156.980469 171.566406 C 154.457031 168.105469 152.8125 165.164062 152.539062 163.867188 C 152.167969 162.117188 152.460938 160.972656 152.597656 160.570312 Z M 154.230469 158.320312 C 154.230469 158.320312 154.488281 158.148438 155.210938 158.144531 L 154.164062 159.898438 C 153.460938 159.835938 153.128906 159.96875 153.128906 159.96875 Z M 156.070312 158.207031 C 156.390625 158.253906 156.753906 158.320312 157.183594 158.429688 L 155.851562 160.300781 C 155.53125 160.183594 155.242188 160.097656 154.980469 160.035156 Z M 158.25 158.738281 C 158.636719 158.863281 159.089844 159.039062 159.589844 159.25 L 158.042969 161.25 C 157.484375 160.988281 157.003906 160.773438 156.625 160.609375 L 158.007812 158.664062 C 158.089844 158.6875 158.164062 158.710938 158.25 158.738281 Z M 162.101562 160.40625 L 160.535156 162.421875 C 160.015625 162.175781 159.515625 161.9375 159.046875 161.71875 L 160.609375 159.699219 C 161.085938 159.917969 161.585938 160.152344 162.101562 160.40625 Z M 164.84375 161.785156 L 163.203125 163.710938 C 162.679688 163.457031 162.15625 163.203125 161.648438 162.957031 L 163.203125 160.949219 C 163.742188 161.21875 164.292969 161.5 164.84375 161.785156 Z M 168.035156 163.453125 L 166.460938 165.308594 C 165.808594 164.988281 165.136719 164.65625 164.457031 164.324219 L 166.070312 162.421875 C 166.746094 162.773438 167.410156 163.121094 168.035156 163.453125 Z M 171.257812 165.121094 L 169.722656 166.929688 C 169.148438 166.644531 168.503906 166.320312 167.8125 165.976562 L 169.367188 164.152344 C 170.085938 164.527344 170.730469 164.859375 171.257812 165.121094 Z M 172.917969 165.957031 C 173.507812 166.261719 174.175781 166.617188 174.882812 166.992188 L 173.382812 168.757812 C 172.605469 168.378906 171.921875 168.039062 171.378906 167.765625 Z M 176.507812 167.871094 L 178.878906 168.625 L 177.109375 170.566406 C 176.402344 170.226562 175.714844 169.890625 175.058594 169.574219 Z M 182.75 170.734375 L 181.164062 172.523438 C 180.410156 172.160156 179.632812 171.785156 178.855469 171.414062 L 180.609375 169.421875 C 181.355469 169.835938 181.996094 170.191406 182.472656 170.457031 Z M 181.71875 164.105469 L 183.910156 166.316406 L 181.695312 168.542969 L 179.503906 166.332031 Z M 175.574219 162.378906 L 177.792969 160.152344 L 180.132812 162.511719 L 177.917969 164.738281 Z M 171.699219 158.472656 L 173.914062 156.246094 L 176.207031 158.554688 L 173.988281 160.78125 Z M 168.019531 154.769531 L 170.234375 152.542969 L 172.328125 154.648438 L 170.113281 156.878906 Z M 164.585938 151.316406 L 166.804688 149.085938 L 168.648438 150.945312 L 166.433594 153.171875 Z M 161.109375 147.808594 L 163.324219 145.582031 L 165.21875 147.492188 L 163 149.71875 Z M 157.925781 144.605469 L 160.140625 142.378906 L 161.886719 144.136719 L 159.671875 146.363281 Z M 155.042969 141.703125 L 157.257812 139.476562 L 158.753906 140.984375 L 156.539062 143.210938 Z M 152.457031 139.097656 L 154.671875 136.871094 L 156.070312 138.277344 L 153.851562 140.507812 Z M 150.019531 136.644531 L 152.234375 134.417969 L 153.484375 135.675781 L 151.265625 137.902344 Z M 148.226562 134.84375 L 150.445312 132.617188 L 151.394531 133.574219 L 149.179688 135.800781 Z M 146.4375 133.039062 L 148.652344 130.8125 L 149.605469 131.769531 L 147.390625 134 Z M 173.5 126.875 L 159.855469 140.871094 L 148.917969 129.863281 L 162.78125 116.082031 Z M 165.820312 113.554688 L 166.773438 114.511719 L 164.558594 116.738281 L 163.605469 115.78125 Z M 168.5625 116.316406 L 166.347656 118.542969 L 165.398438 117.585938 L 167.613281 115.359375 Z M 170.652344 118.417969 L 168.4375 120.644531 L 167.1875 119.386719 L 169.402344 117.160156 Z M 173.234375 121.019531 L 171.019531 123.246094 L 169.625 121.839844 L 171.839844 119.613281 Z M 175.921875 123.722656 L 173.707031 125.953125 L 172.210938 124.445312 L 174.425781 122.21875 Z M 179.054688 126.878906 L 176.839844 129.105469 L 175.09375 127.347656 L 177.308594 125.121094 Z M 182.386719 130.234375 L 180.171875 132.460938 L 178.273438 130.550781 L 180.492188 128.324219 Z M 185.816406 133.6875 L 183.601562 135.914062 L 181.757812 134.054688 L 183.972656 131.828125 Z M 189.496094 137.390625 L 187.28125 139.617188 L 185.1875 137.511719 L 187.402344 135.285156 Z M 193.375 141.296875 L 191.160156 143.523438 L 188.867188 141.214844 L 191.082031 138.988281 Z M 197.300781 145.25 L 195.085938 147.476562 L 192.746094 145.121094 L 194.960938 142.894531 Z M 201.082031 149.058594 L 198.867188 151.285156 L 196.671875 149.074219 L 198.886719 146.847656 Z M 204.859375 152.863281 L 202.644531 155.089844 L 200.449219 152.878906 L 202.667969 150.652344 Z M 208.6875 156.71875 L 206.472656 158.945312 L 204.230469 156.683594 L 206.445312 154.457031 Z M 212.367188 160.421875 L 210.152344 162.648438 L 208.058594 160.539062 L 210.273438 158.3125 Z M 215.949219 164.027344 L 213.730469 166.253906 L 211.738281 164.246094 L 213.953125 162.019531 Z M 219.179688 167.28125 L 216.964844 169.507812 L 215.316406 167.847656 L 217.53125 165.621094 Z M 222.363281 170.484375 L 220.148438 172.710938 L 218.550781 171.101562 L 220.765625 168.878906 Z M 225.246094 173.386719 L 223.03125 175.613281 L 221.582031 174.15625 L 223.796875 171.929688 Z M 227.832031 175.992188 L 225.617188 178.21875 L 224.21875 176.8125 L 226.433594 174.582031 Z M 229.96875 178.144531 L 227.753906 180.371094 L 226.703125 179.3125 L 228.917969 177.085938 Z M 231.859375 180.046875 L 229.644531 182.273438 L 228.691406 181.316406 L 230.90625 179.089844 Z M 233.101562 181.296875 L 230.886719 183.523438 L 230.234375 182.867188 L 232.449219 180.640625 Z M 204.753906 192.890625 L 212.359375 200.546875 C 211.773438 200.652344 210.699219 200.710938 208.734375 200.5 C 207.21875 200.335938 204.222656 199.390625 200.015625 197.695312 Z M 193.671875 181.730469 L 204.234375 192.367188 L 199.222656 197.519531 C 194.582031 195.726562 189.289062 193.425781 185.246094 191.4375 Z M 184.089844 172.082031 L 185.824219 173.832031 L 185.296875 174.511719 C 184.625 174.1875 183.851562 173.816406 183.019531 173.417969 Z M 187.691406 170.121094 L 185.476562 172.347656 L 183.28125 170.140625 L 185.5 167.910156 Z M 206.824219 188.164062 L 191.519531 172.753906 L 205.261719 158.859375 L 220.363281 174.0625 Z M 207.210938 188.554688 L 220.761719 174.464844 L 231.054688 184.824219 L 217.355469 198.769531 Z M 213.066406 200.125 L 215.28125 197.898438 L 215.933594 198.554688 L 213.71875 200.785156 Z M 213.738281 196.347656 L 214.691406 197.304688 L 212.476562 199.53125 L 211.523438 198.574219 Z M 211.75 194.34375 L 212.800781 195.402344 L 210.585938 197.628906 L 209.535156 196.570312 Z M 209.265625 191.84375 L 210.664062 193.25 L 208.445312 195.476562 L 207.050781 194.070312 Z M 203.597656 186.136719 L 205.195312 187.742188 L 202.976562 189.96875 L 201.382812 188.363281 Z M 200.363281 182.882812 L 202.011719 184.539062 L 199.796875 186.765625 L 198.152344 185.109375 Z M 196.785156 179.277344 L 198.78125 181.285156 L 196.566406 183.511719 L 194.570312 181.503906 Z M 187.0625 173.945312 L 189.277344 171.71875 L 191.519531 173.976562 L 189.304688 176.203125 Z M 187.28125 175.460938 C 187.238281 175.441406 187.199219 175.421875 187.152344 175.402344 L 187.179688 175.371094 C 187.210938 175.398438 187.246094 175.429688 187.28125 175.460938 Z M 192.984375 179.90625 L 190.890625 177.796875 L 193.105469 175.570312 L 195.199219 177.679688 Z M 204.414062 191.414062 L 206.628906 189.1875 L 208.078125 190.648438 L 205.863281 192.875 Z M 188.695312 142.175781 L 204.84375 158.4375 L 191.128906 172.363281 L 174.945312 156.070312 Z M 188.273438 141.753906 L 174.589844 155.710938 L 160.328125 141.347656 L 173.984375 127.367188 Z M 168.816406 182.820312 L 178.324219 171.792969 C 183.089844 174.128906 187.300781 175.992188 188.550781 176.574219 L 193.238281 181.296875 L 184.660156 191.183594 C 178.015625 187.773438 171.296875 184.164062 168.816406 182.820312 Z M 176.714844 190 C 176.410156 189.828125 175.355469 188.957031 175.355469 188.957031 C 175.308594 188.910156 175.265625 188.863281 175.21875 188.816406 L 176.503906 187.691406 C 177.074219 187.980469 177.675781 188.289062 178.304688 188.609375 Z M 176.140625 190.546875 C 176.453125 190.839844 176.753906 191.132812 177.039062 191.40625 L 176.09375 192.507812 C 175.816406 192.234375 175.515625 191.941406 175.191406 191.625 Z M 173.992188 188.53125 C 174.078125 188.609375 174.160156 188.6875 174.234375 188.757812 C 174.582031 189.074219 174.945312 189.414062 175.308594 189.753906 L 174.363281 190.832031 C 173.949219 190.445312 173.503906 190.035156 173.039062 189.613281 Z M 172.289062 186.0625 L 172.667969 185.738281 C 172.667969 185.738281 173.816406 186.328125 174.511719 186.679688 L 173.722656 187.371094 C 173.300781 186.976562 172.820312 186.535156 172.289062 186.0625 Z M 171.488281 188.25 C 171.179688 187.984375 170.855469 187.707031 170.527344 187.425781 L 171.53125 186.289062 C 172.09375 186.800781 172.605469 187.265625 173.050781 187.671875 L 172.085938 188.765625 C 171.890625 188.59375 171.691406 188.421875 171.488281 188.25 Z M 159.488281 178.339844 C 162.570312 181.394531 167.386719 185.59375 170.886719 188.59375 C 171 188.6875 171.113281 188.785156 171.523438 189.183594 L 162.957031 198.816406 C 161.691406 197.851562 160.664062 197.089844 159.574219 196.207031 C 157.449219 194.488281 154.460938 191.832031 151.597656 188.957031 Z M 158.445312 174.289062 L 157.40625 175.414062 C 156.960938 174.9375 156.523438 174.449219 156.09375 173.949219 L 157.183594 172.769531 C 157.589844 173.289062 158.015625 173.800781 158.445312 174.289062 Z M 161.3125 177.132812 L 160.257812 178.332031 C 160.035156 178.117188 159.824219 177.90625 159.617188 177.703125 C 159.316406 177.402344 159.011719 177.09375 158.707031 176.777344 L 159.730469 175.671875 C 160.125 176.070312 160.523438 176.445312 160.921875 176.792969 C 161.046875 176.90625 161.179688 177.019531 161.3125 177.132812 Z M 164.402344 179.871094 L 163.285156 181.140625 C 162.710938 180.625 162.152344 180.117188 161.625 179.625 L 162.722656 178.378906 C 163.261719 178.855469 163.824219 179.359375 164.402344 179.871094 Z M 167.445312 182.601562 L 166.351562 183.84375 C 165.796875 183.359375 165.242188 182.875 164.691406 182.390625 L 165.804688 181.125 C 166.351562 181.613281 166.902344 182.109375 167.445312 182.601562 Z M 168.746094 183.769531 C 169.273438 184.25 169.792969 184.714844 170.289062 185.164062 L 169.253906 186.335938 C 168.738281 185.894531 168.210938 185.441406 167.675781 184.984375 Z M 168.390625 182.382812 C 165.515625 180.074219 163.257812 178.113281 161.5625 176.632812 C 160.175781 175.421875 158.753906 173.832031 157.464844 172.175781 L 163.242188 164.3125 C 165.949219 165.640625 168.707031 167.019531 170.304688 167.832031 C 171.488281 168.433594 174.109375 169.726562 177.730469 171.546875 Z M 159.003906 177.851562 L 151.117188 188.464844 C 147.757812 185.015625 144.949219 181.691406 143.65625 179.089844 C 143.429688 178.644531 143.242188 178.203125 143.085938 177.769531 L 150.957031 166.621094 C 151.039062 166.863281 151.132812 167.113281 151.234375 167.375 C 152.691406 171.09375 155.777344 174.585938 159.003906 177.851562 Z M 155.050781 169.832031 C 155.363281 170.296875 155.691406 170.769531 156.03125 171.242188 L 154.890625 172.480469 C 154.519531 172 154.160156 171.515625 153.820312 171.019531 Z M 152.867188 169.511719 C 152.566406 168.996094 152.292969 168.472656 152.050781 167.941406 L 153.269531 166.878906 C 153.511719 167.332031 153.789062 167.816406 154.09375 168.320312 Z M 234.984375 181.976562 L 165.496094 112.007812 L 162.109375 115.410156 L 162.117188 115.414062 L 147.796875 129.726562 L 147.828125 129.765625 L 144.941406 132.667969 L 180.191406 168.160156 C 178.332031 167.191406 174.039062 165.714844 172.136719 164.796875 C 169.285156 163.417969 161.367188 159.035156 158.230469 158.007812 C 155.09375 156.984375 152.785156 158.179688 152.785156 158.179688 L 140.476562 174.671875 C 139.789062 178.746094 141.804688 181.347656 144.125 184.988281 C 146.445312 188.625 151.75 194.355469 159.71875 199.765625 C 166.050781 204.066406 168.859375 204.789062 169.746094 204.90625 L 169.742188 204.914062 L 170.585938 205.011719 L 179.808594 193.003906 C 181.113281 193.570312 184.46875 195.035156 185.375 195.558594 C 186.507812 196.214844 195.113281 200.96875 203.277344 202.902344 C 211.4375 204.835938 213.625 203.328125 213.625 203.328125 L 214.398438 202.621094 L 214.429688 202.695312 L 234.984375 181.976562 " fill-opacity="1" fill-rule="nonzero"/></g><g fill="#000000" fill-opacity="1"><g transform="translate(105.286528, 240.407079)"><g><path d="M 1.28125 -19.1875 L 1.3125 -19.59375 L 13.296875 -19.59375 L 13.265625 -19.515625 L 13.640625 -15.5625 L 13.078125 -15.34375 L 12.625 -19.046875 L 5.015625 -19.046875 L 5.015625 -10 L 11.703125 -10 C 11.796875 -9.976562 11.878906 -10 11.953125 -10.0625 C 12.023438 -10.125 12.0625 -10.210938 12.0625 -10.328125 L 12.1875 -12.265625 L 12.625 -12.3125 L 12.625 -7.53125 C 12.601562 -7.53125 12.460938 -7.519531 12.203125 -7.5 L 12.09375 -9.4375 L 5.015625 -9.4375 L 5.015625 -0.53125 L 6.9375 -0.421875 C 6.9375 -0.398438 6.929688 -0.257812 6.921875 0 L 1.28125 0.03125 L 1.3125 -0.359375 L 2.765625 -0.5625 C 2.953125 -0.582031 3.066406 -0.703125 3.109375 -0.921875 L 3.109375 -18.640625 C 3.066406 -18.867188 2.953125 -18.992188 2.765625 -19.015625 Z M 1.28125 -19.1875 "/></g></g></g><g fill="#000000" fill-opacity="1"><g transform="translate(120.404572, 240.407079)"><g><path d="M 0.421875 0.03125 L 0.453125 -0.359375 L 1.90625 -0.5625 C 2.03125 -0.582031 2.140625 -0.703125 2.234375 -0.921875 L 8.28125 -19.59375 L 10.140625 -19.59375 L 16.578125 -0.53125 L 18.515625 -0.421875 C 18.515625 -0.398438 18.503906 -0.257812 18.484375 0 L 12.875 0.03125 C 12.875 -0.132812 12.882812 -0.265625 12.90625 -0.359375 L 14.359375 -0.5625 C 14.515625 -0.582031 14.59375 -0.691406 14.59375 -0.890625 L 13.046875 -5.453125 L 4.3125 -5.453125 L 2.828125 -0.59375 L 6.078125 -0.421875 C 6.078125 -0.398438 6.066406 -0.257812 6.046875 0 Z M 8.484375 -19.0625 L 4.484375 -6.015625 L 12.859375 -6.015625 Z M 8.484375 -19.0625 "/></g></g></g><g fill="#000000" fill-opacity="1"><g transform="translate(139.946008, 240.407079)"><g><path d="M 1.0625 -19.1875 L 1.09375 -19.59375 L 4.78125 -19.59375 L 11.484375 -5.40625 L 18.0625 -19.59375 L 21.75 -19.59375 C 21.75 -19.5625 21.757812 -19.5 21.78125 -19.40625 C 21.800781 -19.3125 21.800781 -19.238281 21.78125 -19.1875 L 20.296875 -19.015625 C 20.109375 -18.992188 20 -18.867188 19.96875 -18.640625 L 19.96875 -0.53125 L 22.03125 -0.421875 C 22.03125 -0.398438 22.023438 -0.257812 22.015625 0 L 16.375 0.03125 L 16.40625 -0.359375 L 17.859375 -0.5625 C 18.046875 -0.582031 18.160156 -0.691406 18.203125 -0.890625 L 18.203125 -18.59375 L 11.8125 -4.78125 L 11.25 -3.671875 L 10.609375 -3.671875 L 3.53125 -18.625 L 3.53125 -0.59375 L 6.71875 -0.421875 C 6.71875 -0.398438 6.707031 -0.257812 6.6875 0 L 1.0625 0.03125 L 1.09375 -0.359375 L 2.546875 -0.5625 C 2.734375 -0.582031 2.847656 -0.703125 2.890625 -0.921875 L 2.890625 -18.640625 C 2.847656 -18.867188 2.734375 -18.992188 2.546875 -19.015625 Z M 1.0625 -19.1875 "/></g></g></g><g fill="#000000" fill-opacity="1"><g transform="translate(163.742871, 240.407079)"><g><path d="M 1.40625 0.03125 L 1.421875 -0.359375 L 2.890625 -0.5625 C 3.066406 -0.582031 3.175781 -0.703125 3.21875 -0.921875 L 3.25 -0.921875 L 3.25 -18.625 L 3.21875 -18.625 C 3.175781 -18.863281 3.066406 -18.992188 2.890625 -19.015625 L 1.421875 -19.15625 L 1.40625 -19.578125 L 7.03125 -19.59375 C 7.03125 -19.582031 7.039062 -19.445312 7.0625 -19.1875 L 5.15625 -19.015625 L 5.15625 -0.53125 L 7.0625 -0.421875 C 7.0625 -0.398438 7.050781 -0.257812 7.03125 0 Z M 1.40625 0.03125 "/></g></g></g><g fill="#000000" fill-opacity="1"><g transform="translate(172.98172, 240.407079)"><g><path d="M 7.03125 -19.59375 C 7.03125 -19.582031 7.039062 -19.445312 7.0625 -19.1875 L 5.125 -19.015625 L 5.125 -0.5625 L 12.859375 -0.5625 L 13.40625 -5.046875 L 13.9375 -4.90625 L 13.53125 0 L 7.03125 0 L 1.40625 0.03125 L 1.421875 -0.359375 L 2.890625 -0.5625 C 3.066406 -0.582031 3.175781 -0.703125 3.21875 -0.921875 L 3.21875 -18.640625 C 3.175781 -18.867188 3.066406 -18.992188 2.890625 -19.015625 L 1.421875 -19.15625 L 1.40625 -19.578125 Z M 7.03125 -19.59375 "/></g></g></g><g fill="#000000" fill-opacity="1"><g transform="translate(188.239749, 240.407079)"><g><path d="M 17.609375 -19.59375 C 17.609375 -19.582031 17.617188 -19.445312 17.640625 -19.1875 L 16.046875 -19.046875 L 10.046875 -6.609375 L 10.046875 -0.53125 L 12.09375 -0.421875 C 12.09375 -0.398438 12.082031 -0.257812 12.0625 0 L 6.46875 0.03125 C 6.46875 -0.132812 6.476562 -0.265625 6.5 -0.359375 L 7.953125 -0.5625 C 8.140625 -0.582031 8.25 -0.703125 8.28125 -0.921875 L 8.28125 -6.609375 L 1.984375 -18.90625 C 1.910156 -18.957031 1.835938 -19.003906 1.765625 -19.046875 L 0.59375 -19.15625 C 0.570312 -19.257812 0.5625 -19.398438 0.5625 -19.578125 L 6.21875 -19.59375 C 6.21875 -19.582031 6.226562 -19.445312 6.25 -19.1875 L 3.953125 -18.984375 L 9.75 -7.078125 L 14.984375 -18.5625 C 14.984375 -18.789062 14.898438 -18.910156 14.734375 -18.921875 L 12.1875 -19.15625 C 12.164062 -19.257812 12.15625 -19.398438 12.15625 -19.578125 Z M 17.609375 -19.59375 "/></g></g></g><g fill="#000000" fill-opacity="1"><g transform="translate(207.081283, 240.407079)"><g><path d="M 1.28125 -19.1875 L 1.3125 -19.59375 L 13.296875 -19.59375 L 13.265625 -19.515625 L 13.640625 -15.5625 L 13.078125 -15.34375 L 12.625 -19.046875 L 5.015625 -19.046875 L 5.015625 -10 L 11.703125 -10 C 11.796875 -9.976562 11.878906 -10 11.953125 -10.0625 C 12.023438 -10.125 12.0625 -10.210938 12.0625 -10.328125 L 12.1875 -12.265625 L 12.625 -12.3125 L 12.625 -7.53125 C 12.601562 -7.53125 12.460938 -7.519531 12.203125 -7.5 L 12.09375 -9.4375 L 5.015625 -9.4375 L 5.015625 -0.53125 L 6.9375 -0.421875 C 6.9375 -0.398438 6.929688 -0.257812 6.921875 0 L 1.28125 0.03125 L 1.3125 -0.359375 L 2.765625 -0.5625 C 2.953125 -0.582031 3.066406 -0.703125 3.109375 -0.921875 L 3.109375 -18.640625 C 3.066406 -18.867188 2.953125 -18.992188 2.765625 -19.015625 Z M 1.28125 -19.1875 "/></g></g></g><g fill="#000000" fill-opacity="1"><g transform="translate(222.199328, 240.407079)"><g><path d="M 1.40625 0.03125 L 1.421875 -0.359375 L 2.890625 -0.5625 C 3.066406 -0.582031 3.175781 -0.703125 3.21875 -0.921875 L 3.25 -0.921875 L 3.25 -18.625 L 3.21875 -18.625 C 3.175781 -18.863281 3.066406 -18.992188 2.890625 -19.015625 L 1.421875 -19.15625 L 1.40625 -19.578125 L 7.03125 -19.59375 C 7.03125 -19.582031 7.039062 -19.445312 7.0625 -19.1875 L 5.15625 -19.015625 L 5.15625 -0.53125 L 7.0625 -0.421875 C 7.0625 -0.398438 7.050781 -0.257812 7.03125 0 Z M 1.40625 0.03125 "/></g></g></g><g fill="#000000" fill-opacity="1"><g transform="translate(231.438177, 240.407079)"><g><path d="M 7.03125 -19.59375 C 7.03125 -19.582031 7.039062 -19.445312 7.0625 -19.1875 L 5.125 -19.015625 L 5.125 -0.5625 L 12.859375 -0.5625 L 13.40625 -5.046875 L 13.9375 -4.90625 L 13.53125 0 L 7.03125 0 L 1.40625 0.03125 L 1.421875 -0.359375 L 2.890625 -0.5625 C 3.066406 -0.582031 3.175781 -0.703125 3.21875 -0.921875 L 3.21875 -18.640625 C 3.175781 -18.867188 3.066406 -18.992188 2.890625 -19.015625 L 1.421875 -19.15625 L 1.40625 -19.578125 Z M 7.03125 -19.59375 "/></g></g></g><g fill="#000000" fill-opacity="1"><g transform="translate(246.696206, 240.407079)"><g><path d="M 1.0625 -19.1875 L 1.09375 -19.59375 L 4.78125 -19.59375 L 11.484375 -5.40625 L 18.0625 -19.59375 L 21.75 -19.59375 C 21.75 -19.5625 21.757812 -19.5 21.78125 -19.40625 C 21.800781 -19.3125 21.800781 -19.238281 21.78125 -19.1875 L 20.296875 -19.015625 C 20.109375 -18.992188 20 -18.867188 19.96875 -18.640625 L 19.96875 -0.53125 L 22.03125 -0.421875 C 22.03125 -0.398438 22.023438 -0.257812 22.015625 0 L 16.375 0.03125 L 16.40625 -0.359375 L 17.859375 -0.5625 C 18.046875 -0.582031 18.160156 -0.691406 18.203125 -0.890625 L 18.203125 -18.59375 L 11.8125 -4.78125 L 11.25 -3.671875 L 10.609375 -3.671875 L 3.53125 -18.625 L 3.53125 -0.59375 L 6.71875 -0.421875 C 6.71875 -0.398438 6.707031 -0.257812 6.6875 0 L 1.0625 0.03125 L 1.09375 -0.359375 L 2.546875 -0.5625 C 2.734375 -0.582031 2.847656 -0.703125 2.890625 -0.921875 L 2.890625 -18.640625 C 2.847656 -18.867188 2.734375 -18.992188 2.546875 -19.015625 Z M 1.0625 -19.1875 "/></g></g></g><g fill="#000000" fill-opacity="1"><g transform="translate(131.643818, 259.194564)"><g><path d="M 0.71875 0.078125 C 0.476562 0.078125 0.359375 0.0078125 0.359375 -0.125 C 0.359375 -0.226562 0.425781 -0.28125 0.5625 -0.28125 L 0.828125 -0.25 C 1.035156 -0.25 1.175781 -0.367188 1.25 -0.609375 C 1.3125 -0.804688 1.34375 -1.171875 1.34375 -1.703125 L 1.34375 -5.5 C 1.34375 -6.019531 1.316406 -6.359375 1.265625 -6.515625 C 1.222656 -6.679688 1.164062 -6.796875 1.09375 -6.859375 C 1.019531 -6.921875 0.929688 -6.953125 0.828125 -6.953125 L 0.5625 -6.921875 C 0.425781 -6.921875 0.359375 -6.972656 0.359375 -7.078125 C 0.359375 -7.210938 0.457031 -7.28125 0.65625 -7.28125 C 0.851562 -7.28125 1.039062 -7.265625 1.21875 -7.234375 C 1.394531 -7.210938 1.59375 -7.203125 1.8125 -7.203125 C 2.03125 -7.203125 2.222656 -7.210938 2.390625 -7.234375 C 2.554688 -7.265625 2.703125 -7.28125 2.828125 -7.28125 C 3.585938 -7.28125 4.207031 -7.046875 4.6875 -6.578125 C 5.113281 -6.160156 5.328125 -5.648438 5.328125 -5.046875 C 5.328125 -4.492188 5.113281 -4.007812 4.6875 -3.59375 C 4.257812 -3.1875 3.773438 -2.984375 3.234375 -2.984375 C 2.816406 -2.984375 2.53125 -3.066406 2.375 -3.234375 C 2.320312 -3.285156 2.296875 -3.335938 2.296875 -3.390625 C 2.296875 -3.453125 2.3125 -3.5 2.34375 -3.53125 C 2.382812 -3.5625 2.429688 -3.578125 2.484375 -3.578125 C 2.535156 -3.578125 2.601562 -3.546875 2.6875 -3.484375 C 2.832031 -3.378906 3.007812 -3.328125 3.21875 -3.328125 C 3.425781 -3.328125 3.597656 -3.367188 3.734375 -3.453125 C 3.878906 -3.535156 4.003906 -3.648438 4.109375 -3.796875 C 4.316406 -4.097656 4.421875 -4.503906 4.421875 -5.015625 C 4.421875 -5.597656 4.257812 -6.0625 3.9375 -6.40625 C 3.625 -6.738281 3.21875 -6.90625 2.71875 -6.90625 C 2.539062 -6.90625 2.40625 -6.878906 2.3125 -6.828125 C 2.226562 -6.773438 2.1875 -6.691406 2.1875 -6.578125 L 2.1875 -1.703125 C 2.1875 -1.160156 2.210938 -0.8125 2.265625 -0.65625 C 2.316406 -0.5 2.375 -0.390625 2.4375 -0.328125 C 2.507812 -0.273438 2.601562 -0.25 2.71875 -0.25 L 2.96875 -0.28125 C 3.101562 -0.28125 3.171875 -0.226562 3.171875 -0.125 C 3.171875 0.0078125 3.054688 0.078125 2.828125 0.078125 C 2.703125 0.078125 2.578125 0.0664062 2.453125 0.046875 C 2.023438 -0.015625 1.65625 -0.0234375 1.34375 0.015625 C 1.039062 0.0546875 0.832031 0.078125 0.71875 0.078125 Z M 0.71875 0.078125 "/></g></g></g><g fill="#000000" fill-opacity="1"><g transform="translate(139.619546, 259.194564)"><g><path d="M 0.71875 0.078125 C 0.476562 0.078125 0.359375 0.0078125 0.359375 -0.125 C 0.359375 -0.226562 0.425781 -0.28125 0.5625 -0.28125 L 0.828125 -0.25 C 1.015625 -0.25 1.144531 -0.34375 1.21875 -0.53125 C 1.300781 -0.738281 1.34375 -1.128906 1.34375 -1.703125 L 1.34375 -5.5 C 1.34375 -6.082031 1.3125 -6.453125 1.25 -6.609375 C 1.1875 -6.765625 1.125 -6.859375 1.0625 -6.890625 C 1 -6.929688 0.921875 -6.953125 0.828125 -6.953125 L 0.5625 -6.921875 C 0.425781 -6.921875 0.359375 -6.972656 0.359375 -7.078125 C 0.359375 -7.210938 0.457031 -7.28125 0.65625 -7.28125 C 0.851562 -7.28125 1.039062 -7.265625 1.21875 -7.234375 C 1.394531 -7.210938 1.582031 -7.203125 1.78125 -7.203125 C 1.96875 -7.203125 2.144531 -7.210938 2.3125 -7.234375 C 2.488281 -7.265625 2.675781 -7.28125 2.875 -7.28125 C 3.070312 -7.28125 3.171875 -7.210938 3.171875 -7.078125 C 3.171875 -6.972656 3.101562 -6.921875 2.96875 -6.921875 L 2.71875 -6.953125 C 2.519531 -6.953125 2.382812 -6.859375 2.3125 -6.671875 C 2.226562 -6.460938 2.1875 -6.070312 2.1875 -5.5 L 2.1875 -4.28125 L 5.984375 -4.28125 L 5.984375 -5.5 C 5.984375 -6.082031 5.953125 -6.453125 5.890625 -6.609375 C 5.828125 -6.765625 5.765625 -6.859375 5.703125 -6.890625 C 5.640625 -6.929688 5.5625 -6.953125 5.46875 -6.953125 L 5.203125 -6.921875 C 5.066406 -6.921875 5 -6.972656 5 -7.078125 C 5 -7.210938 5.097656 -7.28125 5.296875 -7.28125 C 5.492188 -7.28125 5.679688 -7.265625 5.859375 -7.234375 C 6.035156 -7.210938 6.222656 -7.203125 6.421875 -7.203125 C 6.609375 -7.203125 6.785156 -7.210938 6.953125 -7.234375 C 7.128906 -7.265625 7.316406 -7.28125 7.515625 -7.28125 C 7.710938 -7.28125 7.8125 -7.210938 7.8125 -7.078125 C 7.8125 -6.972656 7.742188 -6.921875 7.609375 -6.921875 L 7.359375 -6.953125 C 7.160156 -6.953125 7.023438 -6.859375 6.953125 -6.671875 C 6.867188 -6.460938 6.828125 -6.070312 6.828125 -5.5 L 6.828125 -1.703125 C 6.828125 -1.117188 6.859375 -0.75 6.921875 -0.59375 C 6.984375 -0.4375 7.046875 -0.335938 7.109375 -0.296875 C 7.179688 -0.265625 7.265625 -0.25 7.359375 -0.25 L 7.609375 -0.28125 C 7.742188 -0.28125 7.8125 -0.226562 7.8125 -0.125 C 7.8125 0.0078125 7.695312 0.078125 7.46875 0.078125 C 7.34375 0.078125 7.21875 0.0664062 7.09375 0.046875 C 6.882812 0.015625 6.660156 0 6.421875 0 C 6.191406 0 5.984375 0.0078125 5.796875 0.03125 C 5.617188 0.0625 5.472656 0.078125 5.359375 0.078125 C 5.117188 0.078125 5 0.0078125 5 -0.125 C 5 -0.226562 5.066406 -0.28125 5.203125 -0.28125 L 5.46875 -0.25 C 5.65625 -0.25 5.785156 -0.34375 5.859375 -0.53125 C 5.941406 -0.738281 5.984375 -1.128906 5.984375 -1.703125 L 5.984375 -3.765625 L 2.1875 -3.765625 L 2.1875 -1.703125 C 2.1875 -1.117188 2.21875 -0.75 2.28125 -0.59375 C 2.34375 -0.4375 2.40625 -0.335938 2.46875 -0.296875 C 2.539062 -0.265625 2.625 -0.25 2.71875 -0.25 L 2.96875 -0.28125 C 3.101562 -0.28125 3.171875 -0.226562 3.171875 -0.125 C 3.171875 0.0078125 3.054688 0.078125 2.828125 0.078125 C 2.703125 0.078125 2.578125 0.0664062 2.453125 0.046875 C 2.023438 -0.015625 1.65625 -0.0234375 1.34375 0.015625 C 1.039062 0.0546875 0.832031 0.078125 0.71875 0.078125 Z M 0.71875 0.078125 "/></g></g></g><g fill="#000000" fill-opacity="1"><g transform="translate(150.010549, 259.194564)"><g><path d="M 0.53125 -3.640625 C 0.53125 -4.179688 0.628906 -4.675781 0.828125 -5.125 C 1.035156 -5.582031 1.3125 -5.972656 1.65625 -6.296875 C 2.007812 -6.628906 2.410156 -6.882812 2.859375 -7.0625 C 3.316406 -7.238281 3.804688 -7.328125 4.328125 -7.328125 C 4.859375 -7.328125 5.347656 -7.226562 5.796875 -7.03125 C 6.253906 -6.84375 6.644531 -6.582031 6.96875 -6.25 C 7.632812 -5.539062 7.96875 -4.640625 7.96875 -3.546875 C 7.96875 -2.503906 7.617188 -1.632812 6.921875 -0.9375 C 6.210938 -0.21875 5.3125 0.140625 4.21875 0.140625 C 3.132812 0.140625 2.25 -0.222656 1.5625 -0.953125 C 0.875 -1.660156 0.53125 -2.554688 0.53125 -3.640625 Z M 1.453125 -3.9375 C 1.453125 -3.476562 1.523438 -3.019531 1.671875 -2.5625 C 1.828125 -2.113281 2.046875 -1.722656 2.328125 -1.390625 C 2.929688 -0.671875 3.6875 -0.3125 4.59375 -0.3125 C 5.300781 -0.3125 5.878906 -0.578125 6.328125 -1.109375 C 6.796875 -1.648438 7.03125 -2.363281 7.03125 -3.25 C 7.03125 -4.300781 6.75 -5.171875 6.1875 -5.859375 C 5.625 -6.546875 4.914062 -6.890625 4.0625 -6.890625 C 3.363281 -6.890625 2.757812 -6.617188 2.25 -6.078125 C 1.71875 -5.523438 1.453125 -4.8125 1.453125 -3.9375 Z M 1.453125 -3.9375 "/></g></g></g><g fill="#000000" fill-opacity="1"><g transform="translate(160.73969, 259.194564)"><g><path d="M 2.203125 0.078125 C 1.972656 0.078125 1.859375 0.0078125 1.859375 -0.125 C 1.859375 -0.226562 1.921875 -0.28125 2.046875 -0.28125 L 2.3125 -0.25 C 2.519531 -0.25 2.660156 -0.367188 2.734375 -0.609375 C 2.804688 -0.804688 2.84375 -1.171875 2.84375 -1.703125 L 2.84375 -6.71875 L 2.6875 -6.71875 C 2.0625 -6.71875 1.5625 -6.65625 1.1875 -6.53125 C 0.9375 -6.4375 0.765625 -6.273438 0.671875 -6.046875 C 0.597656 -5.890625 0.523438 -5.8125 0.453125 -5.8125 C 0.347656 -5.8125 0.296875 -5.867188 0.296875 -5.984375 C 0.296875 -6.023438 0.300781 -6.066406 0.3125 -6.109375 C 0.332031 -6.160156 0.351562 -6.21875 0.375 -6.28125 C 0.4375 -6.445312 0.472656 -6.625 0.484375 -6.8125 C 0.492188 -7 0.507812 -7.125 0.53125 -7.1875 C 0.5625 -7.25 0.601562 -7.28125 0.65625 -7.28125 C 0.71875 -7.28125 0.769531 -7.273438 0.8125 -7.265625 C 0.851562 -7.253906 0.914062 -7.242188 1 -7.234375 C 1.21875 -7.210938 1.488281 -7.203125 1.8125 -7.203125 L 5.21875 -7.203125 C 5.476562 -7.203125 5.664062 -7.210938 5.78125 -7.234375 C 5.90625 -7.265625 5.992188 -7.28125 6.046875 -7.28125 C 6.171875 -7.28125 6.234375 -7.222656 6.234375 -7.109375 C 6.234375 -7.054688 6.222656 -6.988281 6.203125 -6.90625 C 6.148438 -6.738281 6.113281 -6.585938 6.09375 -6.453125 C 6.070312 -6.328125 6.054688 -6.222656 6.046875 -6.140625 C 6.035156 -6.066406 6.019531 -6.003906 6 -5.953125 C 5.96875 -5.878906 5.921875 -5.84375 5.859375 -5.84375 C 5.804688 -5.84375 5.769531 -5.863281 5.75 -5.90625 C 5.738281 -5.945312 5.722656 -6.023438 5.703125 -6.140625 C 5.691406 -6.253906 5.660156 -6.347656 5.609375 -6.421875 C 5.566406 -6.503906 5.515625 -6.566406 5.453125 -6.609375 C 5.328125 -6.679688 5.117188 -6.71875 4.828125 -6.71875 L 3.671875 -6.71875 L 3.671875 -1.703125 C 3.671875 -1.160156 3.695312 -0.8125 3.75 -0.65625 C 3.800781 -0.5 3.859375 -0.390625 3.921875 -0.328125 C 3.992188 -0.273438 4.085938 -0.25 4.203125 -0.25 L 4.46875 -0.28125 C 4.59375 -0.28125 4.65625 -0.226562 4.65625 -0.125 C 4.65625 0.0078125 4.539062 0.078125 4.3125 0.078125 C 4.195312 0.078125 4.070312 0.0664062 3.9375 0.046875 C 3.507812 -0.015625 3.140625 -0.0234375 2.828125 0.015625 C 2.523438 0.0546875 2.316406 0.078125 2.203125 0.078125 Z M 2.203125 0.078125 "/></g></g></g><g fill="#000000" fill-opacity="1"><g transform="translate(169.482939, 259.194564)"><g><path d="M 0.53125 -3.640625 C 0.53125 -4.179688 0.628906 -4.675781 0.828125 -5.125 C 1.035156 -5.582031 1.3125 -5.972656 1.65625 -6.296875 C 2.007812 -6.628906 2.410156 -6.882812 2.859375 -7.0625 C 3.316406 -7.238281 3.804688 -7.328125 4.328125 -7.328125 C 4.859375 -7.328125 5.347656 -7.226562 5.796875 -7.03125 C 6.253906 -6.84375 6.644531 -6.582031 6.96875 -6.25 C 7.632812 -5.539062 7.96875 -4.640625 7.96875 -3.546875 C 7.96875 -2.503906 7.617188 -1.632812 6.921875 -0.9375 C 6.210938 -0.21875 5.3125 0.140625 4.21875 0.140625 C 3.132812 0.140625 2.25 -0.222656 1.5625 -0.953125 C 0.875 -1.660156 0.53125 -2.554688 0.53125 -3.640625 Z M 1.453125 -3.9375 C 1.453125 -3.476562 1.523438 -3.019531 1.671875 -2.5625 C 1.828125 -2.113281 2.046875 -1.722656 2.328125 -1.390625 C 2.929688 -0.671875 3.6875 -0.3125 4.59375 -0.3125 C 5.300781 -0.3125 5.878906 -0.578125 6.328125 -1.109375 C 6.796875 -1.648438 7.03125 -2.363281 7.03125 -3.25 C 7.03125 -4.300781 6.75 -5.171875 6.1875 -5.859375 C 5.625 -6.546875 4.914062 -6.890625 4.0625 -6.890625 C 3.363281 -6.890625 2.757812 -6.617188 2.25 -6.078125 C 1.71875 -5.523438 1.453125 -4.8125 1.453125 -3.9375 Z M 1.453125 -3.9375 "/></g></g></g><g fill="#000000" fill-opacity="1"><g transform="translate(180.212083, 259.194564)"><g><path d="M 7.546875 -3.421875 C 7.691406 -3.421875 7.765625 -3.367188 7.765625 -3.265625 C 7.765625 -3.222656 7.75 -3.1875 7.71875 -3.15625 C 7.6875 -3.125 7.632812 -3.09375 7.5625 -3.0625 C 7.5 -3.039062 7.453125 -3.007812 7.421875 -2.96875 C 7.390625 -2.925781 7.363281 -2.863281 7.34375 -2.78125 C 7.300781 -2.625 7.28125 -2.4375 7.28125 -2.21875 C 7.28125 -2 7.28125 -1.851562 7.28125 -1.78125 C 7.289062 -1.707031 7.300781 -1.632812 7.3125 -1.5625 C 7.320312 -1.300781 7.335938 -1.128906 7.359375 -1.046875 C 7.378906 -0.972656 7.390625 -0.894531 7.390625 -0.8125 C 7.390625 -0.738281 7.34375 -0.660156 7.25 -0.578125 C 7.15625 -0.492188 7.03125 -0.410156 6.875 -0.328125 C 6.71875 -0.253906 6.539062 -0.1875 6.34375 -0.125 C 6.144531 -0.0703125 5.9375 -0.0234375 5.71875 0.015625 C 5.28125 0.109375 4.875 0.15625 4.5 0.15625 C 3.21875 0.15625 2.207031 -0.210938 1.46875 -0.953125 C 0.789062 -1.617188 0.453125 -2.46875 0.453125 -3.5 C 0.453125 -4.65625 0.820312 -5.585938 1.5625 -6.296875 C 2.320312 -6.992188 3.328125 -7.34375 4.578125 -7.34375 C 5.492188 -7.34375 6.226562 -7.234375 6.78125 -7.015625 C 6.882812 -6.960938 6.957031 -6.914062 7 -6.875 C 7.070312 -6.769531 7.113281 -6.613281 7.125 -6.40625 C 7.144531 -6.207031 7.15625 -6.070312 7.15625 -6 C 7.164062 -5.8125 7.171875 -5.695312 7.171875 -5.65625 C 7.171875 -5.519531 7.125 -5.453125 7.03125 -5.453125 C 6.9375 -5.453125 6.863281 -5.539062 6.8125 -5.71875 C 6.757812 -5.894531 6.65625 -6.0625 6.5 -6.21875 C 6.351562 -6.375 6.171875 -6.507812 5.953125 -6.625 C 5.523438 -6.832031 5.046875 -6.9375 4.515625 -6.9375 C 3.992188 -6.9375 3.550781 -6.863281 3.1875 -6.71875 C 2.820312 -6.582031 2.515625 -6.382812 2.265625 -6.125 C 1.734375 -5.570312 1.46875 -4.828125 1.46875 -3.890625 C 1.46875 -2.878906 1.773438 -2.03125 2.390625 -1.34375 C 2.671875 -1.007812 3.007812 -0.75 3.40625 -0.5625 C 3.8125 -0.375 4.253906 -0.28125 4.734375 -0.28125 C 5.472656 -0.28125 5.957031 -0.421875 6.1875 -0.703125 C 6.332031 -0.890625 6.40625 -1.144531 6.40625 -1.46875 L 6.40625 -2.640625 C 6.40625 -2.804688 6.367188 -2.910156 6.296875 -2.953125 C 6.191406 -3.003906 6.046875 -3.03125 5.859375 -3.03125 C 5.554688 -3.03125 5.40625 -3.097656 5.40625 -3.234375 C 5.40625 -3.367188 5.523438 -3.4375 5.765625 -3.4375 L 6.84375 -3.375 Z M 7.546875 -3.421875 "/></g></g></g><g fill="#000000" fill-opacity="1"><g transform="translate(190.56015, 259.194564)"><g><path d="M 0.71875 0.078125 C 0.476562 0.078125 0.359375 0.0078125 0.359375 -0.125 C 0.359375 -0.226562 0.425781 -0.28125 0.5625 -0.28125 L 0.828125 -0.25 C 1.035156 -0.25 1.175781 -0.367188 1.25 -0.609375 C 1.3125 -0.804688 1.34375 -1.171875 1.34375 -1.703125 L 1.34375 -5.5 C 1.34375 -6.019531 1.316406 -6.359375 1.265625 -6.515625 C 1.222656 -6.679688 1.164062 -6.796875 1.09375 -6.859375 C 1.019531 -6.921875 0.929688 -6.953125 0.828125 -6.953125 L 0.5625 -6.921875 C 0.425781 -6.921875 0.359375 -6.972656 0.359375 -7.078125 C 0.359375 -7.210938 0.457031 -7.28125 0.65625 -7.28125 C 0.851562 -7.28125 1.039062 -7.265625 1.21875 -7.234375 C 1.394531 -7.210938 1.582031 -7.203125 1.78125 -7.203125 C 1.96875 -7.203125 2.148438 -7.210938 2.328125 -7.234375 C 2.503906 -7.265625 2.734375 -7.28125 3.015625 -7.28125 C 3.296875 -7.28125 3.59375 -7.234375 3.90625 -7.140625 C 4.226562 -7.054688 4.5 -6.929688 4.71875 -6.765625 C 5.164062 -6.421875 5.390625 -5.972656 5.390625 -5.421875 C 5.390625 -4.796875 5.132812 -4.253906 4.625 -3.796875 C 4.46875 -3.660156 4.285156 -3.539062 4.078125 -3.4375 L 5.828125 -0.90625 C 6.023438 -0.613281 6.242188 -0.4375 6.484375 -0.375 C 6.546875 -0.351562 6.628906 -0.335938 6.734375 -0.328125 C 6.921875 -0.316406 7.015625 -0.257812 7.015625 -0.15625 C 7.015625 -0.0507812 6.914062 0 6.71875 0 L 5.6875 0 C 5.4375 0 5.210938 -0.160156 5.015625 -0.484375 L 3.65625 -2.640625 C 3.53125 -2.835938 3.410156 -2.972656 3.296875 -3.046875 C 3.191406 -3.128906 3.023438 -3.171875 2.796875 -3.171875 C 2.566406 -3.171875 2.363281 -3.164062 2.1875 -3.15625 L 2.1875 -1.703125 C 2.1875 -1.160156 2.210938 -0.8125 2.265625 -0.65625 C 2.316406 -0.5 2.375 -0.390625 2.4375 -0.328125 C 2.507812 -0.273438 2.601562 -0.25 2.71875 -0.25 L 2.96875 -0.28125 C 3.101562 -0.28125 3.171875 -0.226562 3.171875 -0.125 C 3.171875 0.0078125 3.054688 0.078125 2.828125 0.078125 C 2.703125 0.078125 2.578125 0.0664062 2.453125 0.046875 C 2.023438 -0.015625 1.65625 -0.0234375 1.34375 0.015625 C 1.039062 0.0546875 0.832031 0.078125 0.71875 0.078125 Z M 2.1875 -3.625 C 2.425781 -3.601562 2.648438 -3.59375 2.859375 -3.59375 L 3.203125 -3.59375 C 3.546875 -3.59375 3.835938 -3.710938 4.078125 -3.953125 C 4.359375 -4.222656 4.5 -4.597656 4.5 -5.078125 C 4.5 -5.648438 4.328125 -6.101562 3.984375 -6.4375 C 3.648438 -6.75 3.226562 -6.90625 2.71875 -6.90625 C 2.539062 -6.90625 2.40625 -6.878906 2.3125 -6.828125 C 2.226562 -6.773438 2.1875 -6.691406 2.1875 -6.578125 Z M 2.1875 -3.625 "/></g></g></g><g fill="#000000" fill-opacity="1"><g transform="translate(199.770355, 259.194564)"><g><path d="M 1.203125 0 C 1.015625 0 0.84375 0.0078125 0.6875 0.03125 C 0.53125 0.0625 0.359375 0.078125 0.171875 0.078125 C -0.015625 0.078125 -0.109375 0.0195312 -0.109375 -0.09375 C -0.109375 -0.21875 -0.0234375 -0.28125 0.140625 -0.28125 C 0.316406 -0.28125 0.441406 -0.3125 0.515625 -0.375 C 0.640625 -0.488281 0.757812 -0.671875 0.875 -0.921875 C 1 -1.171875 1.109375 -1.40625 1.203125 -1.625 C 1.304688 -1.84375 1.425781 -2.097656 1.5625 -2.390625 C 1.695312 -2.679688 1.84375 -3.003906 2 -3.359375 C 2.15625 -3.722656 2.320312 -4.109375 2.5 -4.515625 C 2.957031 -5.578125 3.257812 -6.289062 3.40625 -6.65625 C 3.550781 -7.019531 3.628906 -7.222656 3.640625 -7.265625 C 3.660156 -7.304688 3.679688 -7.34375 3.703125 -7.375 C 3.753906 -7.445312 3.796875 -7.484375 3.828125 -7.484375 C 3.859375 -7.484375 3.882812 -7.476562 3.90625 -7.46875 C 3.925781 -7.457031 3.945312 -7.441406 3.96875 -7.421875 C 4.03125 -7.359375 4.085938 -7.257812 4.140625 -7.125 C 4.191406 -6.988281 4.257812 -6.804688 4.34375 -6.578125 C 4.4375 -6.347656 4.539062 -6.085938 4.65625 -5.796875 C 4.78125 -5.503906 4.910156 -5.191406 5.046875 -4.859375 C 5.179688 -4.523438 5.3125 -4.191406 5.4375 -3.859375 C 5.570312 -3.535156 5.703125 -3.21875 5.828125 -2.90625 C 5.960938 -2.59375 6.078125 -2.3125 6.171875 -2.0625 C 6.484375 -1.3125 6.679688 -0.863281 6.765625 -0.71875 C 6.847656 -0.570312 6.921875 -0.46875 6.984375 -0.40625 C 7.066406 -0.320312 7.195312 -0.28125 7.375 -0.28125 C 7.550781 -0.28125 7.640625 -0.21875 7.640625 -0.09375 C 7.640625 0.0195312 7.53125 0.078125 7.3125 0.078125 C 7.207031 0.078125 7.117188 0.0703125 7.046875 0.0625 C 6.984375 0.0507812 6.914062 0.046875 6.84375 0.046875 C 6.632812 0.015625 6.453125 0 6.296875 0 L 5.25 0.078125 C 5.019531 0.078125 4.90625 0.0078125 4.90625 -0.125 C 4.90625 -0.226562 4.96875 -0.28125 5.09375 -0.28125 L 5.421875 -0.234375 C 5.554688 -0.234375 5.644531 -0.265625 5.6875 -0.328125 C 5.726562 -0.390625 5.75 -0.460938 5.75 -0.546875 C 5.75 -0.722656 5.675781 -0.988281 5.53125 -1.34375 L 5.09375 -2.453125 L 2.109375 -2.453125 C 2.023438 -2.234375 1.945312 -2.035156 1.875 -1.859375 C 1.800781 -1.679688 1.734375 -1.507812 1.671875 -1.34375 C 1.578125 -1.070312 1.53125 -0.859375 1.53125 -0.703125 C 1.53125 -0.546875 1.554688 -0.429688 1.609375 -0.359375 C 1.660156 -0.285156 1.765625 -0.25 1.921875 -0.25 L 2.25 -0.28125 C 2.375 -0.28125 2.4375 -0.226562 2.4375 -0.125 C 2.4375 0.0078125 2.320312 0.078125 2.09375 0.078125 Z M 4.90625 -2.90625 L 3.625 -6.109375 C 3.382812 -5.484375 2.941406 -4.414062 2.296875 -2.90625 Z M 4.90625 -2.90625 "/></g></g></g><g fill="#000000" fill-opacity="1"><g transform="translate(209.576327, 259.194564)"><g><path d="M 0.71875 0.078125 C 0.476562 0.078125 0.359375 0.0078125 0.359375 -0.125 C 0.359375 -0.226562 0.425781 -0.28125 0.5625 -0.28125 L 0.828125 -0.25 C 1.035156 -0.25 1.175781 -0.367188 1.25 -0.609375 C 1.3125 -0.804688 1.34375 -1.171875 1.34375 -1.703125 L 1.34375 -5.5 C 1.34375 -6.019531 1.316406 -6.359375 1.265625 -6.515625 C 1.222656 -6.679688 1.164062 -6.796875 1.09375 -6.859375 C 1.019531 -6.921875 0.929688 -6.953125 0.828125 -6.953125 L 0.5625 -6.921875 C 0.425781 -6.921875 0.359375 -6.972656 0.359375 -7.078125 C 0.359375 -7.210938 0.457031 -7.28125 0.65625 -7.28125 C 0.851562 -7.28125 1.039062 -7.265625 1.21875 -7.234375 C 1.394531 -7.210938 1.59375 -7.203125 1.8125 -7.203125 C 2.03125 -7.203125 2.222656 -7.210938 2.390625 -7.234375 C 2.554688 -7.265625 2.703125 -7.28125 2.828125 -7.28125 C 3.585938 -7.28125 4.207031 -7.046875 4.6875 -6.578125 C 5.113281 -6.160156 5.328125 -5.648438 5.328125 -5.046875 C 5.328125 -4.492188 5.113281 -4.007812 4.6875 -3.59375 C 4.257812 -3.1875 3.773438 -2.984375 3.234375 -2.984375 C 2.816406 -2.984375 2.53125 -3.066406 2.375 -3.234375 C 2.320312 -3.285156 2.296875 -3.335938 2.296875 -3.390625 C 2.296875 -3.453125 2.3125 -3.5 2.34375 -3.53125 C 2.382812 -3.5625 2.429688 -3.578125 2.484375 -3.578125 C 2.535156 -3.578125 2.601562 -3.546875 2.6875 -3.484375 C 2.832031 -3.378906 3.007812 -3.328125 3.21875 -3.328125 C 3.425781 -3.328125 3.597656 -3.367188 3.734375 -3.453125 C 3.878906 -3.535156 4.003906 -3.648438 4.109375 -3.796875 C 4.316406 -4.097656 4.421875 -4.503906 4.421875 -5.015625 C 4.421875 -5.597656 4.257812 -6.0625 3.9375 -6.40625 C 3.625 -6.738281 3.21875 -6.90625 2.71875 -6.90625 C 2.539062 -6.90625 2.40625 -6.878906 2.3125 -6.828125 C 2.226562 -6.773438 2.1875 -6.691406 2.1875 -6.578125 L 2.1875 -1.703125 C 2.1875 -1.160156 2.210938 -0.8125 2.265625 -0.65625 C 2.316406 -0.5 2.375 -0.390625 2.4375 -0.328125 C 2.507812 -0.273438 2.601562 -0.25 2.71875 -0.25 L 2.96875 -0.28125 C 3.101562 -0.28125 3.171875 -0.226562 3.171875 -0.125 C 3.171875 0.0078125 3.054688 0.078125 2.828125 0.078125 C 2.703125 0.078125 2.578125 0.0664062 2.453125 0.046875 C 2.023438 -0.015625 1.65625 -0.0234375 1.34375 0.015625 C 1.039062 0.0546875 0.832031 0.078125 0.71875 0.078125 Z M 0.71875 0.078125 "/></g></g></g><g fill="#000000" fill-opacity="1"><g transform="translate(217.552058, 259.194564)"><g><path d="M 0.71875 0.078125 C 0.476562 0.078125 0.359375 0.0078125 0.359375 -0.125 C 0.359375 -0.226562 0.425781 -0.28125 0.5625 -0.28125 L 0.828125 -0.25 C 1.015625 -0.25 1.144531 -0.34375 1.21875 -0.53125 C 1.300781 -0.738281 1.34375 -1.128906 1.34375 -1.703125 L 1.34375 -5.5 C 1.34375 -6.082031 1.3125 -6.453125 1.25 -6.609375 C 1.1875 -6.765625 1.125 -6.859375 1.0625 -6.890625 C 1 -6.929688 0.921875 -6.953125 0.828125 -6.953125 L 0.5625 -6.921875 C 0.425781 -6.921875 0.359375 -6.972656 0.359375 -7.078125 C 0.359375 -7.210938 0.457031 -7.28125 0.65625 -7.28125 C 0.851562 -7.28125 1.039062 -7.265625 1.21875 -7.234375 C 1.394531 -7.210938 1.582031 -7.203125 1.78125 -7.203125 C 1.96875 -7.203125 2.144531 -7.210938 2.3125 -7.234375 C 2.488281 -7.265625 2.675781 -7.28125 2.875 -7.28125 C 3.070312 -7.28125 3.171875 -7.210938 3.171875 -7.078125 C 3.171875 -6.972656 3.101562 -6.921875 2.96875 -6.921875 L 2.71875 -6.953125 C 2.519531 -6.953125 2.382812 -6.859375 2.3125 -6.671875 C 2.226562 -6.460938 2.1875 -6.070312 2.1875 -5.5 L 2.1875 -4.28125 L 5.984375 -4.28125 L 5.984375 -5.5 C 5.984375 -6.082031 5.953125 -6.453125 5.890625 -6.609375 C 5.828125 -6.765625 5.765625 -6.859375 5.703125 -6.890625 C 5.640625 -6.929688 5.5625 -6.953125 5.46875 -6.953125 L 5.203125 -6.921875 C 5.066406 -6.921875 5 -6.972656 5 -7.078125 C 5 -7.210938 5.097656 -7.28125 5.296875 -7.28125 C 5.492188 -7.28125 5.679688 -7.265625 5.859375 -7.234375 C 6.035156 -7.210938 6.222656 -7.203125 6.421875 -7.203125 C 6.609375 -7.203125 6.785156 -7.210938 6.953125 -7.234375 C 7.128906 -7.265625 7.316406 -7.28125 7.515625 -7.28125 C 7.710938 -7.28125 7.8125 -7.210938 7.8125 -7.078125 C 7.8125 -6.972656 7.742188 -6.921875 7.609375 -6.921875 L 7.359375 -6.953125 C 7.160156 -6.953125 7.023438 -6.859375 6.953125 -6.671875 C 6.867188 -6.460938 6.828125 -6.070312 6.828125 -5.5 L 6.828125 -1.703125 C 6.828125 -1.117188 6.859375 -0.75 6.921875 -0.59375 C 6.984375 -0.4375 7.046875 -0.335938 7.109375 -0.296875 C 7.179688 -0.265625 7.265625 -0.25 7.359375 -0.25 L 7.609375 -0.28125 C 7.742188 -0.28125 7.8125 -0.226562 7.8125 -0.125 C 7.8125 0.0078125 7.695312 0.078125 7.46875 0.078125 C 7.34375 0.078125 7.21875 0.0664062 7.09375 0.046875 C 6.882812 0.015625 6.660156 0 6.421875 0 C 6.191406 0 5.984375 0.0078125 5.796875 0.03125 C 5.617188 0.0625 5.472656 0.078125 5.359375 0.078125 C 5.117188 0.078125 5 0.0078125 5 -0.125 C 5 -0.226562 5.066406 -0.28125 5.203125 -0.28125 L 5.46875 -0.25 C 5.65625 -0.25 5.785156 -0.34375 5.859375 -0.53125 C 5.941406 -0.738281 5.984375 -1.128906 5.984375 -1.703125 L 5.984375 -3.765625 L 2.1875 -3.765625 L 2.1875 -1.703125 C 2.1875 -1.117188 2.21875 -0.75 2.28125 -0.59375 C 2.34375 -0.4375 2.40625 -0.335938 2.46875 -0.296875 C 2.539062 -0.265625 2.625 -0.25 2.71875 -0.25 L 2.96875 -0.28125 C 3.101562 -0.28125 3.171875 -0.226562 3.171875 -0.125 C 3.171875 0.0078125 3.054688 0.078125 2.828125 0.078125 C 2.703125 0.078125 2.578125 0.0664062 2.453125 0.046875 C 2.023438 -0.015625 1.65625 -0.0234375 1.34375 0.015625 C 1.039062 0.0546875 0.832031 0.078125 0.71875 0.078125 Z M 0.71875 0.078125 "/></g></g></g><g fill="#000000" fill-opacity="1"><g transform="translate(227.943063, 259.194564)"><g><path d="M 0.640625 0.078125 C 0.441406 0.078125 0.34375 0.0078125 0.34375 -0.125 C 0.34375 -0.226562 0.410156 -0.28125 0.546875 -0.28125 L 0.8125 -0.25 C 1.007812 -0.25 1.144531 -0.332031 1.21875 -0.5 C 1.289062 -0.695312 1.328125 -1.09375 1.328125 -1.6875 L 1.328125 -5.5 C 1.328125 -6.082031 1.300781 -6.445312 1.25 -6.59375 C 1.195312 -6.75 1.132812 -6.847656 1.0625 -6.890625 C 1 -6.929688 0.914062 -6.953125 0.8125 -6.953125 L 0.546875 -6.921875 C 0.410156 -6.921875 0.34375 -6.972656 0.34375 -7.078125 C 0.34375 -7.210938 0.4375 -7.28125 0.625 -7.28125 C 0.820312 -7.28125 0.984375 -7.273438 1.109375 -7.265625 C 1.234375 -7.253906 1.359375 -7.242188 1.484375 -7.234375 C 1.816406 -7.210938 2.078125 -7.203125 2.265625 -7.203125 C 2.460938 -7.203125 2.664062 -7.203125 2.875 -7.203125 C 3.09375 -7.210938 3.332031 -7.222656 3.59375 -7.234375 C 4.289062 -7.265625 4.773438 -7.28125 5.046875 -7.28125 C 5.316406 -7.28125 5.46875 -7.265625 5.5 -7.234375 C 5.53125 -7.203125 5.546875 -7.15625 5.546875 -7.09375 C 5.546875 -7.039062 5.546875 -6.988281 5.546875 -6.9375 C 5.546875 -6.894531 5.539062 -6.84375 5.53125 -6.78125 C 5.53125 -6.695312 5.519531 -6.570312 5.5 -6.40625 C 5.488281 -6.25 5.46875 -6.140625 5.4375 -6.078125 C 5.414062 -6.023438 5.378906 -6 5.328125 -6 C 5.285156 -6 5.253906 -6.007812 5.234375 -6.03125 C 5.210938 -6.050781 5.1875 -6.101562 5.15625 -6.1875 C 5.132812 -6.28125 5.082031 -6.363281 5 -6.4375 C 4.925781 -6.507812 4.804688 -6.570312 4.640625 -6.625 C 4.316406 -6.71875 3.722656 -6.765625 2.859375 -6.765625 L 2.375 -6.765625 C 2.289062 -6.765625 2.234375 -6.753906 2.203125 -6.734375 C 2.179688 -6.710938 2.171875 -6.65625 2.171875 -6.5625 L 2.171875 -4.296875 C 2.597656 -4.253906 2.953125 -4.234375 3.234375 -4.234375 C 3.515625 -4.234375 3.710938 -4.234375 3.828125 -4.234375 C 3.953125 -4.234375 4.054688 -4.242188 4.140625 -4.265625 C 4.273438 -4.285156 4.375 -4.347656 4.4375 -4.453125 C 4.5625 -4.640625 4.660156 -4.734375 4.734375 -4.734375 C 4.828125 -4.734375 4.875 -4.6875 4.875 -4.59375 L 4.6875 -3.828125 L 4.703125 -3.421875 C 4.703125 -3.160156 4.644531 -3.03125 4.53125 -3.03125 C 4.425781 -3.03125 4.375 -3.097656 4.375 -3.234375 C 4.375 -3.367188 4.363281 -3.46875 4.34375 -3.53125 C 4.332031 -3.601562 4.289062 -3.660156 4.21875 -3.703125 C 4.101562 -3.765625 3.820312 -3.796875 3.375 -3.796875 C 2.925781 -3.796875 2.523438 -3.773438 2.171875 -3.734375 L 2.171875 -2.453125 C 2.171875 -1.660156 2.191406 -1.007812 2.234375 -0.5 C 2.523438 -0.4375 2.835938 -0.40625 3.171875 -0.40625 C 3.515625 -0.40625 3.804688 -0.410156 4.046875 -0.421875 C 4.285156 -0.441406 4.492188 -0.476562 4.671875 -0.53125 C 5.015625 -0.632812 5.269531 -0.835938 5.4375 -1.140625 C 5.507812 -1.265625 5.582031 -1.328125 5.65625 -1.328125 C 5.726562 -1.328125 5.765625 -1.273438 5.765625 -1.171875 C 5.765625 -1.128906 5.75 -1.070312 5.71875 -1 C 5.695312 -0.90625 5.65625 -0.765625 5.59375 -0.578125 C 5.539062 -0.398438 5.5 -0.269531 5.46875 -0.1875 C 5.445312 -0.101562 5.414062 -0.0390625 5.375 0 C 5.320312 0.0703125 5.21875 0.109375 5.0625 0.109375 C 4.90625 0.109375 4.753906 0.109375 4.609375 0.109375 C 4.460938 0.109375 4.304688 0.101562 4.140625 0.09375 C 3.960938 0.09375 3.675781 0.078125 3.28125 0.046875 C 2.3125 0.00390625 1.738281 -0.0078125 1.5625 0 C 1.394531 0.0195312 1.269531 0.03125 1.1875 0.03125 C 1.101562 0.0390625 1.019531 0.0507812 0.9375 0.0625 C 0.851562 0.0703125 0.753906 0.078125 0.640625 0.078125 Z M 0.640625 0.078125 "/></g></g></g><g fill="#000000" fill-opacity="1"><g transform="translate(236.353543, 259.194564)"><g><path d="M 0.71875 0.078125 C 0.476562 0.078125 0.359375 0.0078125 0.359375 -0.125 C 0.359375 -0.226562 0.425781 -0.28125 0.5625 -0.28125 L 0.828125 -0.25 C 1.035156 -0.25 1.175781 -0.367188 1.25 -0.609375 C 1.3125 -0.804688 1.34375 -1.171875 1.34375 -1.703125 L 1.34375 -5.5 C 1.34375 -6.019531 1.316406 -6.359375 1.265625 -6.515625 C 1.222656 -6.679688 1.164062 -6.796875 1.09375 -6.859375 C 1.019531 -6.921875 0.929688 -6.953125 0.828125 -6.953125 L 0.5625 -6.921875 C 0.425781 -6.921875 0.359375 -6.972656 0.359375 -7.078125 C 0.359375 -7.210938 0.457031 -7.28125 0.65625 -7.28125 C 0.851562 -7.28125 1.039062 -7.265625 1.21875 -7.234375 C 1.394531 -7.210938 1.582031 -7.203125 1.78125 -7.203125 C 1.96875 -7.203125 2.148438 -7.210938 2.328125 -7.234375 C 2.503906 -7.265625 2.734375 -7.28125 3.015625 -7.28125 C 3.296875 -7.28125 3.59375 -7.234375 3.90625 -7.140625 C 4.226562 -7.054688 4.5 -6.929688 4.71875 -6.765625 C 5.164062 -6.421875 5.390625 -5.972656 5.390625 -5.421875 C 5.390625 -4.796875 5.132812 -4.253906 4.625 -3.796875 C 4.46875 -3.660156 4.285156 -3.539062 4.078125 -3.4375 L 5.828125 -0.90625 C 6.023438 -0.613281 6.242188 -0.4375 6.484375 -0.375 C 6.546875 -0.351562 6.628906 -0.335938 6.734375 -0.328125 C 6.921875 -0.316406 7.015625 -0.257812 7.015625 -0.15625 C 7.015625 -0.0507812 6.914062 0 6.71875 0 L 5.6875 0 C 5.4375 0 5.210938 -0.160156 5.015625 -0.484375 L 3.65625 -2.640625 C 3.53125 -2.835938 3.410156 -2.972656 3.296875 -3.046875 C 3.191406 -3.128906 3.023438 -3.171875 2.796875 -3.171875 C 2.566406 -3.171875 2.363281 -3.164062 2.1875 -3.15625 L 2.1875 -1.703125 C 2.1875 -1.160156 2.210938 -0.8125 2.265625 -0.65625 C 2.316406 -0.5 2.375 -0.390625 2.4375 -0.328125 C 2.507812 -0.273438 2.601562 -0.25 2.71875 -0.25 L 2.96875 -0.28125 C 3.101562 -0.28125 3.171875 -0.226562 3.171875 -0.125 C 3.171875 0.0078125 3.054688 0.078125 2.828125 0.078125 C 2.703125 0.078125 2.578125 0.0664062 2.453125 0.046875 C 2.023438 -0.015625 1.65625 -0.0234375 1.34375 0.015625 C 1.039062 0.0546875 0.832031 0.078125 0.71875 0.078125 Z M 2.1875 -3.625 C 2.425781 -3.601562 2.648438 -3.59375 2.859375 -3.59375 L 3.203125 -3.59375 C 3.546875 -3.59375 3.835938 -3.710938 4.078125 -3.953125 C 4.359375 -4.222656 4.5 -4.597656 4.5 -5.078125 C 4.5 -5.648438 4.328125 -6.101562 3.984375 -6.4375 C 3.648438 -6.75 3.226562 -6.90625 2.71875 -6.90625 C 2.539062 -6.90625 2.40625 -6.878906 2.3125 -6.828125 C 2.226562 -6.773438 2.1875 -6.691406 2.1875 -6.578125 Z M 2.1875 -3.625 "/></g></g></g></svg>